<?xml version="1.0" encoding="utf-8"?>
<!-- Svg Vector Icons : http://www.onlinewebfonts.com/icon -->
<!DOCTYPE svg PUBLIC "-//W3C//DTD SVG 1.1//EN" "http://www.w3.org/Graphics/SVG/1.1/DTD/svg11.dtd">
<svg version="1.1" xmlns="http://www.w3.org/2000/svg" xmlns:xlink="http://www.w3.org/1999/xlink" x="0px" y="0px" viewBox="0 0 1000 1000" enable-background="new 0 0 1000 1000" xml:space="preserve">
<metadata> Svg Vector Icons : http://www.onlinewebfonts.com/icon </metadata>
<g><g transform="translate(0.000000,511.000000) scale(0.100000,-0.100000)"><path d="M3786.3,4953.3c-56.7-54.4-56.7-54.4-56.7-537.6v-485.5l-156.5-22.7c-433.3-68.1-787.2-390.2-898.3-814.4c-29.5-118-34-596.6-34-3954v-3817.9l56.7-54.5l54.4-56.7H5000h2248.1l54.4,56.7l56.7,54.5v3817.9c0,3357.4-4.5,3836.1-34,3954c-111.2,424.2-465,746.3-898.3,814.4l-156.5,22.7v485.5c0,483.2,0,483.2-56.7,537.6l-54.5,56.7H5000H3840.8L3786.3,4953.3z M4455.6,4284.1v-363h-181.5h-181.5v363v363h181.5h181.5V4284.1z M5181.5,4284.1v-363H5000h-181.5v363v363H5000h181.5V4284.1z M5907.4,4284.1v-363h-181.5h-181.5v363v363h181.5h181.5V4284.1z M6492.7,3521.9c172.4-56.7,317.6-179.2,410.6-349.4L6985,3025l6.8-3724.9l4.5-3727.2H5000H3003.7l4.5,3727.2L3015,3025l56.7,113.4c97.5,195.1,283.6,349.4,487.7,399.3c38.6,9.1,687.4,15.9,1442.8,18.1C6211.4,3558.2,6392.9,3553.6,6492.7,3521.9z"/><path d="M3786.3,2412.5l-56.7-54.4V-434.4V-3227l56.7-54.5l54.4-56.7H5000h1159.2l54.5,56.7l56.7,54.5v2792.5v2792.5l-56.7,54.4l-54.5,56.7H5000H3840.8L3786.3,2412.5z M5907.4-434.4v-2540.7H5000h-907.4v2540.7v2540.7H5000h907.4V-434.4z"/></g></g>
</svg>